<svg xmlns="http://www.w3.org/2000/svg" xmlns:xlink="http://www.w3.org/1999/xlink" width="500" zoomAndPan="magnify" viewBox="0 0 375 374.999991" height="500" preserveAspectRatio="xMidYMid meet" version="1.0"><defs><clipPath id="518e3ca072"><path d="M 75 3.285156 L 289 3.285156 L 289 129 L 75 129 Z M 75 3.285156 " clip-rule="nonzero"/></clipPath><clipPath id="ebd08b3633"><path d="M 32 93 L 192 93 L 192 371.535156 L 32 371.535156 Z M 32 93 " clip-rule="nonzero"/></clipPath><clipPath id="3147fb7e3c"><path d="M 14.566406 179 L 55 179 L 55 245 L 14.566406 245 Z M 14.566406 179 " clip-rule="nonzero"/></clipPath><clipPath id="b6d5148184"><path d="M 183 93 L 343 93 L 343 371.535156 L 183 371.535156 Z M 183 93 " clip-rule="nonzero"/></clipPath><clipPath id="85ac03e526"><path d="M 161 135 L 192 135 L 192 371.535156 L 161 371.535156 Z M 161 135 " clip-rule="nonzero"/></clipPath><clipPath id="f27d58c743"><path d="M 183 135 L 212 135 L 212 371.535156 L 183 371.535156 Z M 183 135 " clip-rule="nonzero"/></clipPath><clipPath id="df3d44e195"><path d="M 320 179 L 360.316406 179 L 360.316406 245 L 320 245 Z M 320 179 " clip-rule="nonzero"/></clipPath></defs><path fill="#ffffff" d="M 223.976562 211.96875 L 163.007812 211.96875 C 128.625 211.96875 100.488281 183.839844 100.488281 149.460938 L 100.488281 77.832031 C 100.488281 43.453125 128.625 15.320312 163.007812 15.320312 L 223.976562 15.320312 C 258.359375 15.320312 286.496094 43.453125 286.496094 77.832031 L 286.496094 149.460938 C 286.496094 183.839844 258.359375 211.96875 223.976562 211.96875 " fill-opacity="1" fill-rule="nonzero"/><path fill="#496592" d="M 223.976562 211.96875 L 223.976562 208.566406 L 163.007812 208.566406 C 146.753906 208.566406 131.980469 201.921875 121.25 191.207031 C 110.519531 180.480469 103.875 165.710938 103.875 149.460938 L 103.875 77.832031 C 103.875 61.582031 110.519531 46.8125 121.25 36.082031 C 131.980469 25.359375 146.753906 18.71875 163.007812 18.71875 L 223.976562 18.71875 C 240.226562 18.71875 255 25.359375 265.730469 36.082031 C 276.445312 46.8125 283.09375 61.582031 283.105469 77.832031 L 283.105469 149.460938 C 283.09375 165.710938 276.445312 180.480469 265.730469 191.207031 C 255 201.921875 240.226562 208.566406 223.976562 208.566406 L 223.976562 215.355469 C 242.105469 215.355469 258.601562 207.929688 270.527344 196.003906 C 282.46875 184.066406 289.882812 167.574219 289.882812 149.460938 L 289.882812 77.832031 C 289.882812 59.703125 282.46875 43.210938 270.527344 31.289062 C 258.601562 19.351562 242.105469 11.929688 223.976562 11.929688 L 163.007812 11.929688 C 144.875 11.929688 128.382812 19.351562 116.457031 31.289062 C 104.515625 43.210938 97.101562 59.703125 97.101562 77.832031 L 97.101562 149.460938 C 97.101562 167.574219 104.515625 184.066406 116.457031 196.003906 C 128.382812 207.929688 144.875 215.355469 163.007812 215.355469 L 223.976562 215.355469 L 223.976562 211.96875 " fill-opacity="1" fill-rule="nonzero"/><path fill="#abe3f9" d="M 152.121094 98.492188 C 157.542969 98.078125 162.964844 97.367188 168.34375 96.527344 C 192.339844 92.84375 217.871094 85.925781 232.996094 66.929688 C 232.871094 67.085938 272.492188 121.128906 277.96875 124.730469 C 287.945312 112.050781 285.5 84.945312 283.535156 69.535156 C 281.171875 50.753906 272.148438 34.957031 255.839844 24.882812 C 235.289062 12.191406 208.5625 10.375 185.363281 11.859375 C 153.003906 13.929688 120.410156 12.335938 88.40625 7.128906 C 85.941406 6.730469 83.011719 6.464844 81.359375 8.335938 C 80.433594 9.390625 80.195312 10.863281 80.007812 12.253906 C 77.917969 27.730469 78.015625 43.738281 82.726562 58.621094 C 90.78125 84.132812 108.042969 95.375 133.5625 98.277344 C 139.722656 98.976562 145.929688 98.945312 152.121094 98.492188 " fill-opacity="1" fill-rule="nonzero"/><g clip-path="url(#518e3ca072)"><path fill="#496592" d="M 152.121094 98.492188 L 152.375 101.964844 C 157.941406 101.550781 163.449219 100.8125 168.871094 99.984375 C 181.011719 98.105469 193.648438 95.417969 205.304688 90.707031 C 216.957031 85.984375 227.691406 79.195312 235.714844 69.109375 L 232.996094 66.929688 L 229.511719 66.929688 C 229.511719 67.484375 229.597656 67.714844 229.640625 67.898438 C 229.753906 68.253906 229.808594 68.367188 229.867188 68.46875 C 229.953125 68.652344 229.996094 68.710938 230.023438 68.78125 L 230.195312 69.039062 C 230.378906 69.308594 230.648438 69.707031 231.0625 70.261719 C 234.050781 74.457031 243.8125 87.761719 253.503906 100.46875 C 258.34375 106.828125 263.15625 113.035156 267.097656 117.886719 C 269.074219 120.320312 270.839844 122.394531 272.292969 124.019531 C 273.015625 124.84375 273.671875 125.542969 274.269531 126.125 C 274.882812 126.722656 275.378906 127.175781 276.0625 127.648438 C 277.570312 128.628906 279.59375 128.300781 280.714844 126.878906 C 284.03125 122.652344 285.980469 117.359375 287.191406 111.667969 C 288.371094 105.960938 288.800781 99.828125 288.800781 93.765625 C 288.800781 84.675781 287.847656 75.78125 287.007812 69.109375 C 285.769531 59.289062 282.765625 50.15625 277.898438 42.128906 C 273.03125 34.117188 266.269531 27.230469 257.675781 21.921875 C 248.878906 16.488281 239.101562 13 229.027344 10.863281 C 218.964844 8.722656 208.589844 7.9375 198.558594 7.9375 C 193.988281 7.9375 189.507812 8.097656 185.136719 8.378906 C 176.058594 8.957031 166.949219 9.246094 157.839844 9.246094 C 134.785156 9.246094 111.714844 7.390625 88.972656 3.6875 C 87.949219 3.523438 86.753906 3.355469 85.460938 3.355469 C 84.421875 3.355469 83.28125 3.460938 82.113281 3.84375 C 80.933594 4.222656 79.695312 4.933594 78.742188 6.035156 C 77.84375 7.0625 77.359375 8.191406 77.0625 9.179688 C 76.777344 10.167969 76.648438 11.054688 76.550781 11.789062 C 75.710938 17.984375 75.210938 24.292969 75.210938 30.605469 C 75.210938 40.394531 76.40625 50.210938 79.394531 59.660156 C 81.503906 66.320312 84.222656 72.109375 87.578125 77.121094 C 92.617188 84.617188 99.105469 90.28125 106.777344 94.265625 C 114.464844 98.265625 123.285156 100.625 133.164062 101.734375 C 136.621094 102.132812 140.078125 102.304688 143.507812 102.304688 C 146.484375 102.304688 149.445312 102.175781 152.375 101.964844 L 152.121094 98.492188 L 151.863281 95.003906 C 149.074219 95.203125 146.285156 95.332031 143.507812 95.332031 C 140.308594 95.332031 137.121094 95.175781 133.960938 94.804688 C 121.605469 93.410156 111.558594 90.011719 103.691406 84.132812 C 99.746094 81.1875 96.316406 77.601562 93.371094 73.21875 C 90.441406 68.851562 87.976562 63.671875 86.058594 57.570312 C 83.308594 48.929688 82.1875 39.824219 82.1875 30.605469 C 82.1875 24.660156 82.65625 18.664062 83.464844 12.722656 C 83.550781 12.066406 83.636719 11.519531 83.75 11.164062 C 83.863281 10.796875 83.964844 10.664062 83.980469 10.636719 C 84.035156 10.585938 84.0625 10.554688 84.292969 10.46875 C 84.503906 10.390625 84.917969 10.324219 85.460938 10.324219 C 86.128906 10.324219 86.96875 10.433594 87.851562 10.570312 C 110.976562 14.332031 134.402344 16.222656 157.839844 16.222656 C 167.089844 16.222656 176.34375 15.929688 185.578125 15.339844 C 189.820312 15.066406 194.160156 14.910156 198.558594 14.910156 C 208.21875 14.910156 218.125 15.679688 227.574219 17.683594 C 237.039062 19.695312 246.0625 22.9375 254.003906 27.84375 C 261.703125 32.609375 267.625 38.65625 271.933594 45.757812 C 276.246094 52.84375 278.953125 61.011719 280.089844 69.976562 C 280.914062 76.523438 281.8125 85.160156 281.8125 93.765625 C 281.8125 99.5 281.414062 105.207031 280.359375 110.230469 C 279.308594 115.269531 277.601562 119.566406 275.238281 122.566406 L 277.96875 124.730469 L 279.875 121.8125 L 279.636719 122.183594 L 279.890625 121.8125 L 279.875 121.8125 L 279.632812 122.183594 L 279.890625 121.8125 C 279.875 121.8125 279.464844 121.457031 278.9375 120.929688 C 277.941406 119.921875 276.445312 118.226562 274.683594 116.105469 C 268.449219 108.664062 258.699219 95.875 250.558594 84.972656 C 246.476562 79.523438 242.789062 74.53125 240.128906 70.886719 C 238.789062 69.078125 237.722656 67.585938 236.984375 66.5625 C 236.625 66.050781 236.328125 65.652344 236.15625 65.394531 L 235.988281 65.152344 L 235.972656 65.136719 L 234.433594 66.148438 L 236.027344 65.222656 L 235.972656 65.136719 L 234.433594 66.148438 L 236.027344 65.222656 L 233.253906 66.816406 L 236.144531 65.4375 C 236.085938 65.308594 236.042969 65.253906 236.027344 65.222656 L 233.253906 66.816406 L 236.144531 65.4375 L 233.054688 66.917969 L 236.285156 65.777344 C 236.226562 65.59375 236.171875 65.507812 236.144531 65.4375 L 233.054688 66.917969 L 236.285156 65.777344 L 233.011719 66.929688 L 236.398438 66.148438 C 236.355469 65.976562 236.3125 65.863281 236.285156 65.777344 L 233.011719 66.929688 L 236.398438 66.148438 L 232.996094 66.929688 L 236.484375 66.929688 C 236.46875 66.546875 236.425781 66.320312 236.398438 66.148438 L 232.996094 66.929688 L 236.484375 66.929688 C 236.484375 65.453125 235.546875 64.128906 234.136719 63.644531 C 232.742188 63.144531 231.191406 63.601562 230.265625 64.769531 C 223.179688 73.660156 213.570312 79.824219 202.683594 84.234375 C 191.796875 88.660156 179.671875 91.261719 167.804688 93.085938 C 162.480469 93.910156 157.15625 94.621094 151.863281 95.003906 L 152.121094 98.492188 " fill-opacity="1" fill-rule="nonzero"/></g><path fill="#abe3f9" d="M 187.542969 367.976562 L 39.71875 317.890625 C 37.484375 317.136719 35.976562 315.042969 35.976562 312.683594 L 35.976562 102.644531 C 35.976562 98.875 39.691406 96.214844 43.261719 97.425781 L 187.542969 146.300781 L 187.542969 367.976562 " fill-opacity="1" fill-rule="nonzero"/><g clip-path="url(#ebd08b3633)"><path fill="#496592" d="M 187.542969 367.976562 L 188.667969 364.675781 L 40.84375 314.589844 C 40.019531 314.320312 39.460938 313.550781 39.460938 312.683594 L 39.460938 102.644531 C 39.460938 102.035156 39.691406 101.578125 40.074219 101.210938 C 40.445312 100.824219 40.972656 100.613281 41.484375 100.613281 C 41.695312 100.613281 41.910156 100.640625 42.136719 100.726562 L 184.054688 148.804688 L 184.054688 367.976562 L 187.542969 367.976562 L 188.667969 364.675781 L 187.542969 367.976562 L 191.027344 367.976562 L 191.027344 146.300781 C 191.027344 144.808594 190.074219 143.484375 188.667969 143 L 44.371094 94.125 L 44.386719 94.125 C 43.433594 93.796875 42.4375 93.640625 41.484375 93.640625 C 39.0625 93.640625 36.828125 94.605469 35.191406 96.214844 C 33.554688 97.792969 32.488281 100.113281 32.488281 102.644531 L 32.488281 312.683594 C 32.488281 316.539062 34.949219 319.96875 38.609375 321.191406 L 186.417969 371.277344 C 187.484375 371.632812 188.667969 371.464844 189.578125 370.808594 C 190.488281 370.167969 191.027344 369.101562 191.027344 367.976562 L 187.542969 367.976562 " fill-opacity="1" fill-rule="nonzero"/></g><path fill="#7bd4f6" d="M 183.855469 363.054688 L 40.84375 314.589844 C 40.019531 314.320312 39.460938 313.550781 39.460938 312.683594 L 39.460938 115.152344 C 56.695312 161.683594 94.867188 200.328125 138.171875 225.65625 C 152.730469 234.167969 168.03125 241.335938 183.855469 247.03125 L 183.855469 363.054688 " fill-opacity="1" fill-rule="nonzero"/><path fill="#3b6492" d="M 183.855469 366.726562 L 39.71875 317.890625 C 37.484375 317.136719 35.976562 315.042969 35.976562 312.683594 L 35.976562 104.652344 C 37.015625 108.195312 38.183594 111.695312 39.460938 115.152344 L 39.460938 312.683594 C 39.460938 313.550781 40.019531 314.320312 40.84375 314.589844 L 183.855469 363.054688 L 183.855469 366.726562 " fill-opacity="1" fill-rule="nonzero"/><path fill="#ffffff" d="M 34.550781 241.210938 C 25.617188 241.210938 18.300781 233.910156 18.300781 224.960938 L 18.300781 198.964844 C 18.300781 190.027344 25.617188 182.714844 34.550781 182.714844 C 43.488281 182.714844 50.804688 190.027344 50.804688 198.964844 L 50.804688 224.960938 C 50.804688 233.910156 43.488281 241.210938 34.550781 241.210938 " fill-opacity="1" fill-rule="nonzero"/><g clip-path="url(#3147fb7e3c)"><path fill="#496592" d="M 34.550781 241.210938 L 34.550781 237.722656 C 31.050781 237.722656 27.878906 236.300781 25.542969 233.980469 C 23.214844 231.648438 21.792969 228.476562 21.785156 224.960938 L 21.785156 198.964844 C 21.792969 195.449219 23.214844 192.277344 25.539062 189.957031 C 27.878906 187.621094 31.050781 186.199219 34.550781 186.199219 C 38.066406 186.199219 41.242188 187.621094 43.5625 189.957031 C 45.894531 192.277344 47.320312 195.449219 47.320312 198.964844 L 47.320312 224.960938 C 47.320312 228.476562 45.894531 231.648438 43.5625 233.980469 C 41.242188 236.300781 38.066406 237.722656 34.550781 237.722656 L 34.550781 244.710938 C 39.988281 244.710938 44.941406 242.476562 48.5 238.90625 C 52.070312 235.347656 54.292969 230.394531 54.292969 224.960938 L 54.292969 198.964844 C 54.292969 193.527344 52.070312 188.589844 48.5 185.019531 C 44.941406 181.449219 39.988281 179.226562 34.550781 179.226562 C 29.128906 179.226562 24.171875 181.449219 20.605469 185.019531 C 17.039062 188.589844 14.808594 193.527344 14.808594 198.964844 L 14.808594 224.960938 C 14.808594 230.394531 17.039062 235.347656 20.605469 238.90625 C 24.171875 242.476562 29.128906 244.710938 34.550781 244.710938 L 34.550781 241.210938 " fill-opacity="1" fill-rule="nonzero"/></g><path fill="#abe3f9" d="M 187.34375 367.976562 L 335.167969 317.890625 C 337.402344 317.136719 338.910156 315.042969 338.910156 312.683594 L 338.910156 102.644531 C 338.910156 98.875 335.195312 96.214844 331.621094 97.425781 L 187.34375 146.300781 L 187.34375 367.976562 " fill-opacity="1" fill-rule="nonzero"/><g clip-path="url(#b6d5148184)"><path fill="#496592" d="M 187.34375 367.976562 L 188.46875 371.277344 L 336.277344 321.191406 C 339.933594 319.96875 342.394531 316.539062 342.394531 312.683594 L 342.394531 102.644531 C 342.394531 100.113281 341.328125 97.792969 339.691406 96.214844 C 338.054688 94.605469 335.820312 93.640625 333.402344 93.640625 C 332.433594 93.640625 331.453125 93.796875 330.5 94.125 L 186.21875 143 C 184.808594 143.484375 183.855469 144.808594 183.855469 146.300781 L 183.855469 367.976562 C 183.855469 369.101562 184.398438 370.167969 185.308594 370.808594 C 186.21875 371.464844 187.398438 371.632812 188.46875 371.277344 L 187.34375 367.976562 L 190.828125 367.976562 L 190.828125 148.804688 L 332.746094 100.726562 C 332.976562 100.640625 333.1875 100.613281 333.402344 100.613281 C 333.914062 100.613281 334.441406 100.824219 334.8125 101.210938 C 335.195312 101.578125 335.410156 102.035156 335.421875 102.644531 L 335.421875 312.683594 C 335.421875 313.550781 334.867188 314.320312 334.042969 314.589844 L 186.21875 364.675781 L 187.34375 367.976562 L 190.828125 367.976562 L 187.34375 367.976562 " fill-opacity="1" fill-rule="nonzero"/></g><path fill="#7bd4f6" d="M 190.828125 363.109375 L 190.828125 249.421875 C 209.644531 255.582031 229.125 259.609375 248.980469 261.117188 C 254.816406 261.558594 260.648438 261.769531 266.484375 261.769531 C 289.78125 261.769531 313.023438 258.3125 335.421875 251.910156 L 335.421875 312.683594 C 335.421875 313.550781 334.867188 314.320312 334.042969 314.589844 L 190.828125 363.109375 " fill-opacity="1" fill-rule="nonzero"/><path fill="#3b6492" d="M 187.34375 367.976562 L 187.34375 248.253906 C 188.496094 248.652344 189.664062 249.035156 190.828125 249.421875 L 190.828125 363.109375 L 334.042969 314.589844 C 334.867188 314.320312 335.421875 313.550781 335.421875 312.683594 L 335.421875 251.910156 C 336.574219 251.582031 337.742188 251.242188 338.910156 250.886719 L 338.910156 312.683594 C 338.910156 315.042969 337.402344 317.136719 335.167969 317.890625 L 187.34375 367.976562 " fill-opacity="1" fill-rule="nonzero"/><path fill="#ffffff" d="M 165.410156 138.800781 L 165.410156 360.476562 L 187.542969 367.976562 L 187.542969 146.300781 L 165.410156 138.800781 " fill-opacity="1" fill-rule="nonzero"/><g clip-path="url(#85ac03e526)"><path fill="#496592" d="M 165.410156 138.800781 L 161.925781 138.800781 L 161.925781 360.476562 C 161.925781 361.972656 162.878906 363.296875 164.289062 363.78125 L 186.417969 371.277344 C 187.484375 371.632812 188.667969 371.464844 189.578125 370.808594 C 190.488281 370.167969 191.027344 369.101562 191.027344 367.976562 L 191.027344 146.300781 C 191.027344 144.808594 190.074219 143.484375 188.667969 143 L 166.535156 135.5 C 165.46875 135.144531 164.289062 135.316406 163.378906 135.972656 C 162.464844 136.625 161.925781 137.691406 161.925781 138.800781 L 165.410156 138.800781 L 164.300781 142.105469 L 184.054688 148.804688 L 184.054688 363.109375 L 168.898438 357.972656 L 168.898438 138.800781 L 165.414062 138.800781 L 164.300781 142.105469 L 165.414062 138.800781 " fill-opacity="1" fill-rule="nonzero"/></g><path fill="#ffffff" d="M 208.007812 139.300781 L 187.34375 146.300781 L 187.34375 367.976562 L 208.007812 360.976562 L 208.007812 139.300781 " fill-opacity="1" fill-rule="nonzero"/><g clip-path="url(#f27d58c743)"><path fill="#496592" d="M 208.007812 139.300781 L 206.882812 136 L 186.21875 143 C 184.808594 143.484375 183.855469 144.808594 183.855469 146.300781 L 183.855469 367.976562 C 183.855469 369.101562 184.398438 370.167969 185.308594 370.808594 C 186.21875 371.464844 187.398438 371.632812 188.46875 371.277344 L 209.132812 364.277344 C 210.539062 363.792969 211.492188 362.46875 211.492188 360.976562 L 211.492188 139.300781 C 211.492188 138.175781 210.953125 137.125 210.042969 136.46875 C 209.132812 135.816406 207.949219 135.644531 206.882812 136 L 208.007812 139.300781 L 204.519531 139.300781 L 204.519531 358.472656 L 190.828125 363.109375 L 190.828125 148.804688 L 209.132812 142.601562 L 208.007812 139.300781 L 204.519531 139.300781 L 208.007812 139.300781 " fill-opacity="1" fill-rule="nonzero"/></g><path fill="#ffffff" d="M 340.332031 241.210938 C 349.269531 241.210938 356.585938 233.910156 356.585938 224.960938 L 356.585938 198.964844 C 356.585938 190.027344 349.269531 182.714844 340.332031 182.714844 C 331.394531 182.714844 324.078125 190.027344 324.078125 198.964844 L 324.078125 224.960938 C 324.078125 233.910156 331.394531 241.210938 340.332031 241.210938 " fill-opacity="1" fill-rule="nonzero"/><g clip-path="url(#df3d44e195)"><path fill="#496592" d="M 340.332031 241.210938 L 340.332031 244.710938 C 345.769531 244.710938 350.707031 242.476562 354.28125 238.90625 C 357.851562 235.347656 360.070312 230.394531 360.070312 224.960938 L 360.070312 198.964844 C 360.070312 193.527344 357.851562 188.589844 354.28125 185.019531 C 350.707031 181.449219 345.769531 179.226562 340.332031 179.226562 C 334.894531 179.226562 329.945312 181.449219 326.386719 185.019531 C 322.8125 188.589844 320.59375 193.527344 320.59375 198.964844 L 320.59375 224.960938 C 320.59375 230.394531 322.8125 235.347656 326.386719 238.90625 C 329.945312 242.476562 334.894531 244.710938 340.332031 244.710938 L 340.332031 237.722656 C 336.816406 237.722656 333.65625 236.300781 331.324219 233.980469 C 328.988281 231.648438 327.566406 228.476562 327.566406 224.960938 L 327.566406 198.964844 C 327.566406 195.449219 328.988281 192.277344 331.324219 189.957031 C 333.644531 187.621094 336.816406 186.199219 340.332031 186.199219 C 343.832031 186.199219 347.019531 187.621094 349.339844 189.957031 C 351.675781 192.277344 353.097656 195.449219 353.097656 198.964844 L 353.097656 224.960938 C 353.097656 228.476562 351.675781 231.648438 349.339844 233.980469 C 347.019531 236.300781 343.832031 237.722656 340.332031 237.722656 L 340.332031 241.210938 " fill-opacity="1" fill-rule="nonzero"/></g></svg>